# xmcd CD database file
#
# Track frame offsets:
#	183
#	10775
#	22823
#	33668
#	46598
#	58428
#	71920
#	84865
#	99220
#	113025
#	125338
#	137695
#	149585
#	161573
#	173233
#	185050
#
# Disc length: 2636 seconds
#
# Revision: 0
# Processed by: cddbd v1.5.2PL0 Copyright (c) Steve Scherf et al.
# Submitted via: CDex 1.51
#
DISCID=d60a4a10
DTITLE=Fats Navarro - Fat again
DYEAR=1900
DGENRE=Jazz
TTITLE0=Fat girl
TTITLE1=Ice freezes red
TTITLE2=Eb pob
TTITLE3=goin' to mintons
TTITLE4=a bebop carroll
TTITLE5=a bebop carroll
TTITLE6=the tadd walk
TTITLE7=gone with the wind
TTITLE8=that someone must be you
TTITLE9=nostalgia
TTITLE10=nostalgia (master take)
TTITLE11=barry'bop
TTITLE12=barry's bop
TTITLE13=bebop romp
TTITLE14=bebop romp (master take)
TTITLE15=fat's blows
EXTD=
EXTT0=
EXTT1=
EXTT2=
EXTT3=
EXTT4=
EXTT5=
EXTT6=
EXTT7=
EXTT8=
EXTT9=
EXTT10=
EXTT11=
EXTT12=
EXTT13=
EXTT14=
EXTT15=
PLAYORDER=
